<svg viewBox="0 0 200 200" xmlns="http://www.w3.org/2000/svg">
  <g fill="none" stroke="#D4A017" stroke-width="1.2" opacity="0.25">
    <circle cx="100" cy="100" r="70"/>
    <circle cx="100" cy="100" r="90"/>
    <circle cx="100" cy="100" r="50"/>
    
    <!-- Petals -->
    <g>
      <path d="M100 20 C120 40 120 60 100 80 C80 60 80 40 100 20Z" />
      <path d="M180 100 C160 120 140 120 120 100 C140 80 160 80 180 100Z" />
      <path d="M100 180 C120 160 120 140 100 120 C80 140 80 160 100 180Z" />
      <path d="M20 100 C40 120 60 120 80 100 C60 80 40 80 20 100Z" />
    </g>
  </g>
</svg>